<?xml version="1.0" encoding="UTF-8" standalone="no"?>
<svg xmlns="http://www.w3.org/2000/svg" version="1.1">
	<polygon points="5,838 4,839 1,839 0,840 0,896 1,895 2,895 3,894 4,894 5,893 6,893 7,892 8,892 9,891 10,891 11,890 13,890 14,889 15,889 16,888 17,888 18,887 20,887 21,886 23,886 24,885 25,885 26,884 28,884 29,883 30,883 31,882 32,882 33,881 35,881 36,880 37,880 38,879 39,879 40,878 41,878 43,876 44,876 50,870 50,868 51,867 51,857 50,856 50,853 49,852 49,849 48,848 46,848 44,846 42,846 41,845 37,845 36,844 35,844 34,843 32,843 31,842 30,842 29,841 27,841 26,840 25,840 24,839 15,839 14,838" style="fill:none;stroke:black;stroke-width:1" data-type="Neoplastic" data-type-probability="0.6997319031725953"/>
	<polygon points="749,0 749,1 748,2 748,4 747,5 747,8 746,9 746,14 745,15 745,16 746,17 746,25 747,26 747,27 748,28 748,30 749,31 749,34 750,35 750,37 752,39 752,40 753,41 753,42 755,44 756,44 759,47 760,47 761,48 763,48 764,49 770,49 771,48 771,47 772,46 772,45 773,44 773,43 774,42 774,40 775,39 775,37 776,36 776,32 777,31 777,30 778,29 778,28 779,27 779,26 781,24 781,23 787,17 787,16 789,14 789,13 790,12 790,11 791,10 791,8 792,7 792,4 793,3 793,2 792,1 792,0" style="fill:none;stroke:black;stroke-width:1" data-type="Neoplastic" data-type-probability="0.4400715560882101"/>
	<polygon points="1023,244 1023,246 1022,247 1022,248 1023,249 1022,250 1022,258 1023,259 1023,266 1022,267 1021,267 1019,269 1016,269 1015,270 1015,271 1014,272 1014,277 1015,277 1016,278 1016,284 1015,285 1014,285 1014,286 1015,286 1016,287 1016,294 1015,295 1015,296 1014,297 1015,297 1017,299 1017,300 1016,301 1017,302 1017,305 1019,305 1021,307 1021,309 1023,309" style="fill:none;stroke:black;stroke-width:1" data-type="Neoplastic" data-type-probability="0.8579234949237063"/>
	<polygon points="15,345 14,346 8,346 7,347 5,347 4,348 2,348 0,350 0,432 1,432 2,433 16,433 17,432 18,432 19,431 20,431 26,425 26,424 37,413 37,412 39,410 39,409 40,408 40,407 41,406 41,405 42,404 42,402 43,401 43,397 44,396 44,394 45,393 45,391 47,389 47,388 48,387 48,386 49,385 49,384 50,383 50,382 51,381 51,379 52,378 52,369 51,368 51,365 50,364 50,363 49,362 49,361 48,360 48,359 47,359 44,356 42,356 41,355 38,355 37,354 35,354 34,353 33,353 32,352 31,352 30,351 28,351 26,349 25,349 24,348 23,348 22,347 21,347 20,346 16,346" style="fill:none;stroke:black;stroke-width:1" data-type="Epithelial" data-type-probability="0.7274999997979167"/>
	<polygon points="262,488 261,489 256,489 255,490 237,490 236,491 233,491 232,492 231,492 230,493 229,493 228,494 227,494 226,495 225,495 224,496 223,496 222,497 221,497 220,498 217,498 216,499 215,499 214,500 213,500 209,504 209,506 208,507 208,509 207,510 207,512 206,513 206,515 205,516 205,518 204,519 204,522 203,523 203,527 202,528 202,538 203,539 203,547 204,548 204,553 205,554 205,557 206,558 206,559 207,560 207,562 208,563 208,564 210,566 210,569 211,570 211,573 212,574 212,577 213,578 213,580 214,581 214,582 216,584 216,585 217,586 218,586 219,587 220,587 221,588 231,588 232,587 245,587 246,586 253,586 254,587 266,587 267,586 268,586 269,585 271,585 272,584 274,584 275,583 276,583 277,582 278,582 279,581 282,581 283,580 284,580 285,579 287,579 288,578 289,578 290,577 291,577 296,572 297,572 298,571 299,571 301,569 301,568 302,567 302,566 307,561 307,560 308,559 308,558 310,556 311,556 314,553 315,553 317,551 318,551 320,549 322,549 323,548 324,548 326,546 327,546 329,544 330,544 330,543 331,542 332,542 333,541 333,540 336,537 337,537 339,535 339,534 341,532 341,531 343,529 343,528 344,527 344,526 345,525 345,520 346,519 346,513 345,512 345,507 344,506 344,505 343,504 343,503 342,502 342,501 337,496 336,496 334,494 332,494 331,493 328,493 327,492 322,492 321,491 309,491 308,492 304,492 303,493 301,493 300,494 292,494 291,493 288,493 287,492 282,492 281,491 278,491 277,490 274,490 273,489 270,489 269,488" style="fill:none;stroke:black;stroke-width:1" data-type="Epithelial" data-type-probability="0.7259808740078666"/>
	<polygon points="919,503 917,505 917,506 916,507 916,509 915,510 915,512 914,513 914,527 913,528 913,534 912,535 912,537 913,538 913,541 914,542 914,546 915,547 915,549 916,550 916,551 917,552 917,553 919,555 919,556 920,557 920,558 922,560 922,561 923,562 923,563 924,564 924,565 926,567 926,568 928,570 929,570 933,574 934,574 937,577 938,577 939,578 940,578 941,579 942,579 943,580 945,580 946,581 953,581 954,582 963,582 964,581 966,581 967,580 968,580 979,569 979,568 980,567 980,566 981,565 981,562 982,561 982,560 985,557 985,556 992,549 993,549 996,546 996,545 998,543 998,542 999,541 999,540 1000,539 1000,538 999,538 998,537 998,531 997,530 997,523 996,522 994,522 993,521 991,521 990,520 988,520 987,519 981,519 980,518 980,514 978,514 977,513 974,513 973,512 964,512 963,511 960,511 959,510 959,504 950,504 949,503 932,503 931,504 929,504 928,503" style="fill:none;stroke:black;stroke-width:1" data-type="Neoplastic" data-type-probability="0.8482505314424413"/>
	<polygon points="358,546 357,547 337,547 336,548 332,548 331,549 330,549 329,550 328,550 326,552 325,552 323,554 322,554 321,555 320,555 315,560 315,567 316,568 316,569 317,570 317,571 324,578 325,578 329,582 329,583 330,584 330,588 331,589 330,590 330,592 329,593 329,594 332,594 333,595 336,595 337,596 344,596 345,595 347,595 348,594 349,594 349,593 346,590 347,589 351,589 352,588 356,588 357,587 360,587 362,585 365,585 366,584 367,584 368,583 369,583 373,579 372,578 373,577 373,571 374,570 374,569 375,568 375,566 376,565 376,562 377,561 377,556 376,555 376,553 375,552 375,551 372,548 371,548 370,547 366,547 365,546" style="fill:none;stroke:black;stroke-width:1" data-type="Epithelial" data-type-probability="0.8755420638007190"/>
	<polygon points="352,855 351,856 349,856 348,857 347,857 346,858 345,858 341,862 341,863 340,864 340,865 339,866 339,867 337,869 337,870 329,878 328,878 326,880 325,880 323,882 322,882 320,884 319,884 316,887 316,888 314,890 314,891 311,894 311,895 306,900 306,901 302,905 302,906 300,908 300,909 299,910 299,911 297,913 297,914 296,915 296,916 295,917 295,918 294,919 294,920 293,921 293,922 292,923 292,925 291,926 291,927 290,928 290,929 289,930 289,931 288,932 288,934 287,935 287,938 286,939 286,947 287,948 287,955 288,956 288,963 289,964 289,968 290,969 290,972 291,973 291,978 292,979 292,980 293,981 293,982 294,983 294,984 295,985 296,985 298,987 300,987 301,988 302,988 303,989 304,989 305,990 306,990 307,991 308,991 310,993 313,993 314,994 316,994 317,995 319,995 320,996 321,996 324,999 325,999 327,1001 328,1001 329,1002 334,1002 335,1003 343,1003 344,1002 346,1002 347,1001 362,1001 363,1000 366,1000 367,999 369,999 371,997 373,997 374,996 376,996 377,995 385,995 387,993 394,993 395,992 396,992 397,991 401,991 402,990 404,990 405,989 406,989 407,988 408,988 409,987 409,986 414,981 414,980 419,975 419,974 420,973 421,973 422,972 422,971 424,969 425,969 425,959 423,957 423,953 421,951 419,951 417,949 417,945 415,943 415,934 416,933 416,931 417,930 417,928 418,927 418,926 420,924 420,923 421,922 421,921 422,920 422,919 423,918 423,917 425,915 425,910 426,909 426,903 425,902 425,897 424,896 424,895 422,893 422,892 421,891 421,890 419,888 419,887 413,881 413,880 400,867 400,866 398,864 397,864 394,861 393,861 392,860 391,860 390,859 388,859 387,858 384,858 383,857 379,857 378,856 370,856 369,855" style="fill:none;stroke:black;stroke-width:1" data-type="Neoplastic" data-type-probability="0.8703726784949287"/>
	<polygon points="320,0 320,13 321,14 321,26 320,27 320,38 321,39 321,59 322,60 322,66 323,67 323,76 324,77 324,80 325,81 325,83 326,84 326,85 327,86 327,88 328,89 328,91 329,92 329,100 330,101 330,103 332,105 332,106 334,108 334,109 337,112 337,113 342,118 343,118 346,121 348,121 349,122 352,122 353,121 355,121 356,120 366,120 367,121 368,121 369,122 374,122 375,123 377,123 378,122 384,122 385,121 388,121 389,120 391,120 392,119 394,119 395,118 396,118 397,117 398,117 399,116 400,116 402,114 403,114 406,111 407,111 412,106 412,105 416,101 416,100 419,97 419,96 421,94 421,93 422,92 422,91 423,90 423,89 424,88 424,87 425,86 425,83 426,82 426,79 427,78 427,76 428,75 428,70 429,69 429,62 430,61 430,41 431,40 431,34 432,33 432,28 433,27 433,22 434,21 434,10 433,9 433,5 432,4 432,1 431,0" style="fill:none;stroke:black;stroke-width:1" data-type="Neoplastic" data-type-probability="0.4648206622569168"/>
	<polygon points="281,176 280,177 278,177 277,178 274,178 273,179 272,179 271,180 269,180 268,181 267,181 266,182 264,182 263,183 262,183 261,184 260,184 257,187 256,187 256,188 254,190 254,191 253,192 253,193 251,195 251,197 250,198 250,199 248,201 248,203 247,204 247,207 246,208 246,217 245,218 245,222 244,223 244,225 242,227 242,229 241,230 241,232 240,233 240,238 239,239 239,244 238,245 238,247 237,248 237,250 236,251 236,252 228,260 227,260 223,264 222,264 219,267 219,268 217,270 217,271 216,272 216,273 215,274 215,276 214,277 214,278 213,279 213,281 212,282 212,284 211,285 211,289 212,290 212,291 213,292 213,293 214,294 215,294 216,295 227,295 228,294 232,294 233,293 235,293 236,292 238,292 239,291 242,291 243,290 245,290 246,289 248,289 249,288 252,288 253,287 254,287 255,286 256,286 257,285 258,285 259,284 261,284 262,283 263,283 264,282 265,282 268,279 269,279 271,277 272,277 274,275 275,275 277,273 278,273 279,272 280,272 282,270 283,270 284,269 285,269 295,259 295,258 303,250 303,249 307,245 308,245 311,242 311,241 315,237 315,236 318,233 318,232 321,229 321,228 323,226 323,225 325,223 325,222 326,221 326,216 327,215 327,192 326,191 326,190 325,189 325,188 324,187 323,187 321,185 319,185 318,184 312,184 311,183 308,183 306,181 305,181 304,180 302,180 301,179 300,179 299,178 296,178 295,177 292,177 291,176" style="fill:none;stroke:black;stroke-width:1" data-type="Neoplastic" data-type-probability="0.5326595071973899"/>
	<polygon points="406,231 405,232 395,232 394,233 389,233 388,234 386,234 385,235 383,235 382,236 380,236 379,237 378,237 377,238 376,238 375,239 373,239 372,240 370,240 369,241 367,241 366,242 365,242 364,243 362,243 361,244 360,244 359,245 358,245 357,246 356,246 354,248 353,248 351,250 350,250 349,251 348,251 346,253 345,253 343,255 342,255 340,257 340,258 338,260 338,261 337,262 337,263 336,264 336,266 335,267 335,268 334,269 334,270 333,271 333,273 332,274 332,275 331,276 331,278 330,279 330,280 329,281 329,282 328,283 328,284 327,285 327,286 326,287 326,290 325,291 325,299 326,300 326,302 329,305 333,305 334,304 339,304 340,303 344,303 345,302 346,302 347,301 349,301 350,300 351,300 352,299 354,299 355,298 357,298 358,297 360,297 361,296 362,296 363,295 364,295 365,294 366,294 367,293 368,293 370,291 371,291 373,289 374,289 375,288 376,288 377,287 378,287 379,286 380,286 381,285 382,285 383,284 384,284 385,283 386,283 387,282 388,282 389,281 390,281 391,280 392,280 393,279 394,279 395,278 397,278 398,277 399,277 400,276 401,276 402,275 403,275 405,273 406,273 408,271 409,271 413,267 414,267 416,265 417,265 418,264 419,264 420,263 421,263 424,260 425,260 427,258 427,257 430,254 430,253 436,247 436,246 437,245 437,244 438,243 438,240 437,239 437,237 433,233 432,233 431,232 429,232 428,231" style="fill:none;stroke:black;stroke-width:1" data-type="Neoplastic" data-type-probability="0.9910941473725414"/>
	<polygon points="357,373 356,374 352,374 351,375 349,375 348,376 347,376 346,377 345,377 342,380 341,380 337,384 337,385 334,388 334,389 327,396 326,396 325,397 324,397 323,398 322,398 317,403 317,404 315,406 315,407 314,408 314,409 313,410 313,411 312,412 312,413 311,414 311,416 310,417 310,419 309,420 309,424 308,425 308,429 309,430 309,433 310,434 310,437 311,438 311,446 312,447 312,450 313,451 313,452 314,453 314,454 319,459 320,459 322,461 323,461 324,462 325,462 326,463 327,463 328,464 329,464 330,465 332,465 333,466 336,466 337,467 340,467 341,468 345,468 346,469 359,469 360,468 363,468 364,467 365,467 366,466 367,466 368,465 369,465 370,464 371,464 373,462 374,462 376,460 377,460 380,457 381,457 382,456 383,456 384,455 385,455 386,454 388,454 389,453 391,453 392,452 393,452 394,451 395,451 396,450 398,450 399,449 403,449 404,448 406,448 407,447 408,447 409,446 410,446 412,444 412,443 414,441 414,439 415,438 415,431 414,430 414,423 413,422 413,419 412,418 412,417 411,416 411,415 410,414 410,413 409,412 409,411 407,409 407,408 405,406 405,405 404,404 404,403 403,402 403,401 402,400 402,399 401,398 401,397 400,396 400,394 398,392 398,390 397,389 397,388 395,386 395,385 389,379 388,379 387,378 386,378 385,377 384,377 383,376 382,376 381,375 379,375 378,374 375,374 374,373" style="fill:none;stroke:black;stroke-width:1" data-type="Neoplastic" data-type-probability="0.9625779624528874"/>
	<polygon points="200,389 199,390 197,390 196,391 194,391 193,392 191,392 190,393 177,393 176,394 173,394 172,395 169,395 168,396 164,396 163,397 161,397 160,398 157,398 156,399 155,399 154,400 153,400 152,401 151,401 149,403 148,403 147,404 146,404 145,405 142,405 141,406 138,406 137,407 133,407 132,408 113,408 112,409 110,409 109,410 106,410 105,411 104,411 104,429 105,430 105,435 106,436 106,439 107,440 107,442 108,443 108,444 109,445 109,446 110,447 110,449 111,450 111,451 112,452 112,454 113,455 113,457 114,458 114,461 115,462 115,463 116,464 116,465 117,466 117,468 118,469 118,470 119,471 119,473 120,474 122,474 123,475 125,475 126,476 127,476 128,477 129,477 130,478 131,478 132,479 133,479 134,480 136,480 137,481 138,481 139,482 141,482 142,483 144,483 145,484 147,484 148,485 152,485 153,486 165,486 166,485 181,485 183,483 184,483 187,480 188,480 191,477 192,477 193,476 194,476 195,475 200,475 201,474 202,474 203,473 204,473 207,470 208,470 209,469 209,468 212,465 212,464 213,463 213,462 214,461 214,460 215,459 215,457 216,456 216,453 217,452 217,449 218,448 218,445 219,444 219,442 220,441 220,440 221,439 221,438 223,436 223,435 224,434 224,433 225,432 225,431 226,430 226,428 227,427 227,425 228,424 228,415 227,414 227,411 226,410 226,408 225,407 225,404 224,403 224,401 223,400 223,398 222,397 222,396 219,393 218,393 217,392 216,392 215,391 214,391 213,390 211,390 210,389" style="fill:none;stroke:black;stroke-width:1" data-type="Neoplastic" data-type-probability="0.9608525444801160"/>
	<polygon points="665,684 664,685 662,685 661,686 660,686 659,687 658,687 657,688 656,688 655,689 654,689 652,691 651,691 649,693 648,693 640,701 640,702 638,704 638,705 637,706 637,707 635,709 635,710 631,714 631,715 630,716 629,716 626,719 625,719 624,720 623,720 622,721 621,721 610,732 610,733 606,737 606,738 605,739 605,740 604,741 604,743 603,744 603,746 602,747 602,751 601,752 601,758 602,759 602,764 603,765 603,767 604,768 604,769 605,770 605,771 606,772 606,773 616,783 617,783 619,785 620,785 621,786 622,786 623,787 624,787 625,788 630,788 631,789 645,789 646,788 653,788 654,787 660,787 661,786 664,786 665,785 666,785 667,784 669,784 670,783 671,783 672,782 674,782 675,781 678,781 679,780 680,780 681,779 683,779 684,778 685,778 686,777 687,777 688,776 689,776 690,775 691,775 692,774 693,774 694,773 695,773 696,772 697,772 699,770 700,770 701,769 702,769 706,765 707,765 709,763 710,763 712,761 713,761 717,757 718,757 720,755 720,754 723,751 724,751 734,741 734,740 735,739 735,738 736,737 736,735 737,734 737,719 736,718 736,716 735,715 735,714 734,713 734,712 733,711 733,710 732,709 732,708 729,705 729,704 728,704 727,703 727,702 726,702 722,698 721,698 718,695 717,695 715,693 714,693 712,691 711,691 710,690 708,690 707,689 706,689 705,688 703,688 702,687 700,687 699,686 695,686 694,685 687,685 686,684" style="fill:none;stroke:black;stroke-width:1" data-type="Neoplastic" data-type-probability="0.9303366412793990"/>
	<polygon points="489,667 488,668 487,668 485,670 484,670 483,671 482,671 481,672 478,672 477,673 474,673 473,674 470,674 469,675 466,675 465,676 464,676 462,678 461,678 460,679 459,679 458,680 457,680 456,681 454,681 453,682 451,682 450,683 449,683 447,685 446,685 445,686 445,687 435,697 434,697 434,698 431,701 430,701 430,703 429,704 429,707 428,708 428,712 427,713 427,714 426,715 426,716 425,717 422,717 422,718 423,718 440,735 440,736 441,737 441,746 443,746 444,745 449,745 450,746 451,746 454,749 455,749 458,752 459,752 460,753 461,753 463,755 464,755 466,757 468,757 469,758 471,758 472,759 477,759 478,760 480,760 481,761 493,761 494,760 497,760 498,759 499,759 500,758 501,758 503,756 504,756 505,755 505,753 506,752 506,751 508,749 508,748 509,747 509,746 510,745 510,744 511,743 510,742 510,740 511,739 511,717 512,716 512,715 513,714 513,713 515,711 516,711 516,710 515,710 509,704 508,704 506,702 505,702 504,701 503,701 501,699 500,699 498,697 497,697 496,696 495,696 493,694 493,691 492,690 492,687 491,686 491,684 490,683 490,681 489,680" style="fill:none;stroke:black;stroke-width:1" data-type="Epithelial" data-type-probability="0.8088156242951414"/>
	<polygon points="758,940 757,941 752,941 751,942 742,942 741,943 739,943 738,944 726,944 725,945 723,945 722,946 720,946 719,947 717,947 716,948 715,948 714,949 713,949 712,950 711,950 710,951 709,951 708,952 706,952 705,953 704,953 703,954 702,954 701,955 700,955 698,957 698,959 697,960 697,961 695,963 695,964 694,965 694,966 693,967 693,969 691,971 691,972 690,973 690,974 688,976 688,977 687,978 687,979 686,980 686,982 685,983 685,985 684,986 684,988 683,989 683,992 682,993 682,996 681,997 681,1005 680,1006 680,1014 681,1015 681,1016 682,1017 682,1019 685,1022 686,1022 687,1023 842,1023 844,1021 844,1020 845,1019 845,1005 844,1004 844,1000 843,999 843,996 842,995 842,994 841,993 841,991 840,990 840,989 839,988 839,987 837,985 837,984 835,982 835,981 832,978 832,977 830,975 830,974 829,973 829,972 828,971 828,970 824,966 823,966 821,964 820,964 819,963 818,963 817,962 816,962 815,961 814,961 811,958 810,958 809,957 808,957 806,955 805,955 800,950 799,950 797,948 796,948 795,947 794,947 793,946 792,946 791,945 790,945 789,944 787,944 786,943 783,943 782,942 774,942 773,941 772,942 768,942 767,941 761,941 760,940" style="fill:none;stroke:black;stroke-width:1" data-type="Neoplastic" data-type-probability="0.9629890109043526"/>
	<polygon points="163,31 162,32 158,32 157,33 155,33 154,34 153,34 150,37 150,39 149,40 149,43 148,44 148,47 147,48 147,56 146,57 146,64 147,65 147,70 148,71 148,73 149,74 149,77 150,78 150,80 151,81 151,83 152,84 152,86 153,87 153,88 154,89 154,90 155,91 155,92 157,94 157,95 162,100 169,100 170,99 171,99 172,98 173,98 175,96 176,96 185,87 186,87 187,86 188,86 189,85 193,85 194,84 201,84 202,83 203,83 208,78 208,77 209,76 209,75 210,74 210,70 211,69 210,68 210,66 209,65 209,63 207,61 207,60 200,53 200,52 198,50 198,49 197,48 197,47 194,44 194,43 192,41 191,41 185,35 184,35 182,33 181,33 180,32 176,32 175,31" style="fill:none;stroke:black;stroke-width:1" data-type="Neoplastic" data-type-probability="0.9618841025838599"/>
	<polygon points="56,101 55,102 53,102 51,104 50,104 48,106 46,106 45,107 44,107 43,108 40,108 39,109 38,109 37,110 36,110 33,113 31,113 30,114 26,114 25,115 20,115 19,116 17,116 16,117 15,117 14,118 13,118 11,120 10,120 8,122 7,122 4,125 3,125 1,127 1,128 0,129 0,208 1,209 2,209 4,211 5,211 7,213 8,213 10,215 11,215 14,218 15,218 20,223 21,223 23,225 24,225 25,226 27,226 28,227 33,227 34,226 36,226 37,225 39,225 40,224 41,224 42,223 44,223 45,222 46,222 47,221 48,221 49,220 50,220 51,219 52,219 54,217 55,217 57,215 58,215 60,213 61,213 63,211 64,211 65,210 66,210 67,209 68,209 71,206 72,206 75,203 76,203 81,198 82,198 84,196 85,196 87,194 89,194 90,193 91,193 93,191 95,191 96,190 99,190 100,189 102,189 103,188 104,188 105,187 106,187 111,182 111,181 112,180 112,179 113,178 113,177 114,176 114,173 115,172 115,171 116,170 116,167 117,166 117,157 116,156 116,154 115,153 115,151 114,150 114,148 113,147 113,146 112,145 112,144 110,142 110,141 108,139 108,138 106,136 106,135 103,132 103,131 100,128 100,127 95,122 95,121 92,118 92,117 88,113 88,112 87,112 84,109 83,109 81,107 80,107 79,106 78,106 77,105 76,105 75,104 74,104 73,103 72,103 71,102 68,102 67,101" style="fill:none;stroke:black;stroke-width:1" data-type="Neoplastic" data-type-probability="0.9709021252420960"/>
	<polygon points="93,642 92,643 83,643 82,644 71,644 70,645 66,645 65,646 64,646 63,647 60,647 59,648 56,648 55,649 53,649 52,650 50,650 48,652 47,652 42,657 42,659 38,663 38,664 37,665 37,666 36,667 36,671 35,672 35,686 34,687 34,692 33,693 33,699 34,700 34,705 35,706 35,707 38,710 38,713 41,716 41,717 43,719 43,721 45,723 45,725 46,726 46,728 48,730 48,732 49,733 49,734 50,735 50,737 51,738 51,740 52,741 52,742 56,746 57,746 59,748 60,748 61,749 62,749 64,751 65,751 66,752 68,752 69,753 71,753 72,754 73,754 74,755 77,755 78,756 79,756 80,757 81,757 82,758 83,758 84,759 85,759 86,760 98,760 99,759 103,759 104,758 106,758 107,757 110,757 111,756 113,756 114,755 116,755 117,754 118,754 119,753 120,753 121,752 122,752 128,746 128,745 132,741 132,740 139,733 140,733 141,732 142,732 143,731 147,731 148,730 150,730 151,729 153,729 155,727 156,727 157,726 158,726 159,725 161,725 162,724 163,724 164,723 166,723 167,722 169,722 170,721 171,721 172,720 174,720 175,719 176,719 177,718 178,718 179,717 180,717 182,715 183,715 191,707 192,707 195,704 196,704 197,703 198,703 199,702 200,702 201,701 202,701 204,699 205,699 206,698 208,698 209,697 212,697 213,696 215,696 219,692 219,690 220,689 220,686 221,685 221,671 220,670 220,667 219,666 219,664 217,662 217,661 213,657 213,656 211,654 210,654 207,651 206,651 205,650 204,650 203,649 201,649 200,648 196,648 195,647 193,647 192,646 190,646 189,645 188,645 187,644 184,644 183,643 173,643 172,642 142,642 141,643 138,643 137,644 134,644 133,645 131,645 130,646 129,646 128,645 122,645 121,644 100,644 99,643 95,643 94,642" style="fill:none;stroke:black;stroke-width:1" data-type="Neoplastic" data-type-probability="0.8861443931867192"/>
	<polygon points="543,978 542,979 540,979 539,980 538,980 537,981 535,981 534,982 532,982 531,983 529,983 528,984 526,984 525,985 523,985 522,986 520,986 519,987 518,987 517,988 515,988 514,989 512,989 511,990 509,990 508,991 506,991 505,992 503,992 502,993 500,993 499,994 498,994 497,995 496,995 494,997 493,997 489,1001 489,1002 487,1004 487,1005 486,1006 486,1009 485,1010 485,1019 486,1020 486,1021 487,1022 488,1022 489,1023 610,1023 612,1021 612,1020 613,1019 613,1014 612,1013 612,1012 611,1011 611,1009 605,1003 605,1002 602,999 601,999 597,995 596,995 594,993 593,993 592,992 591,992 589,990 588,990 586,988 585,988 584,987 582,987 581,986 580,986 579,985 578,985 577,984 576,984 575,983 574,983 573,982 570,982 569,981 562,981 561,980 556,980 555,979 552,979 551,978" style="fill:none;stroke:black;stroke-width:1" data-type="Neoplastic" data-type-probability="0.9785919220969781"/>
	<polygon points="963,178 962,179 960,179 959,180 957,180 956,181 954,181 953,182 952,182 951,183 950,183 949,184 948,184 947,185 946,185 944,187 943,187 938,192 937,192 937,193 932,198 932,199 931,200 931,201 930,202 930,203 927,206 927,207 926,208 925,208 921,212 920,212 918,214 917,214 915,216 914,216 906,224 906,225 904,227 904,228 903,229 903,230 902,231 902,232 901,233 901,236 900,237 900,242 899,243 899,246 898,247 899,247 900,248 902,248 903,247 908,247 909,246 913,246 914,245 919,245 920,244 922,244 923,243 924,243 925,242 926,242 928,240 929,240 930,239 931,239 932,238 933,238 934,237 935,237 937,235 938,235 939,234 943,234 944,233 947,233 948,234 950,234 951,235 953,235 954,236 957,236 958,237 960,237 961,238 964,238 965,239 968,239 969,240 979,240 981,238 981,237 982,236 982,234 984,232 984,231 985,230 985,229 986,228 986,227 989,224 989,223 991,221 991,219 992,218 992,216 993,215 993,206 992,205 992,202 991,201 991,199 990,198 990,196 989,195 989,194 988,193 988,192 987,191 987,189 985,187 985,186 979,180 978,180 977,179 975,179 974,178" style="fill:none;stroke:black;stroke-width:1" data-type="Epithelial" data-type-probability="0.7144254276981845"/>
	<polygon points="452,589 451,590 436,590 435,591 419,591 418,592 406,592 405,593 402,593 401,594 400,594 399,595 398,595 397,596 396,596 394,598 393,598 392,599 391,599 389,601 388,601 387,602 386,602 385,603 384,603 383,604 382,604 380,606 379,606 377,608 376,608 373,611 372,611 369,614 368,614 363,619 362,619 358,623 358,624 356,626 356,627 355,628 355,629 354,630 354,631 353,632 353,633 352,634 352,635 351,636 351,637 350,638 350,641 349,642 349,645 348,646 348,648 347,649 347,650 346,651 346,652 345,653 345,654 344,655 344,658 343,659 343,664 344,665 344,668 345,669 345,670 346,671 346,672 348,674 348,675 349,676 349,677 350,678 350,680 351,681 351,682 352,683 352,684 358,690 359,690 360,691 361,691 362,692 366,692 367,693 374,693 375,694 385,694 386,693 391,693 392,692 396,692 397,691 404,691 405,690 406,690 407,689 408,689 409,688 410,688 411,687 412,687 413,686 414,686 415,685 417,685 418,684 422,684 423,683 426,683 427,682 430,682 431,681 432,681 434,679 435,679 438,676 438,675 448,665 449,665 453,661 453,660 464,649 464,648 466,646 466,645 467,644 467,643 469,641 469,640 470,639 470,638 471,637 471,636 472,635 472,632 473,631 473,626 474,625 474,622 475,621 475,620 476,619 476,615 475,614 475,608 474,607 474,604 473,603 473,602 472,601 472,600 471,599 471,598 469,596 469,595 467,593 466,593 464,591 463,591 462,590 458,590 457,589" style="fill:none;stroke:black;stroke-width:1" data-type="Epithelial" data-type-probability="0.6874510570979394"/>
	<polygon points="860,648 859,649 854,649 853,650 850,650 849,651 847,651 846,652 844,652 843,653 842,653 841,654 840,654 839,655 838,655 837,656 836,656 835,657 834,657 829,662 828,662 823,667 823,668 821,670 821,673 820,674 820,677 819,678 819,681 818,682 818,685 817,686 817,688 815,690 815,691 814,692 814,693 812,695 812,696 809,699 809,700 807,702 807,703 806,704 806,705 805,706 805,709 804,710 804,714 803,715 803,718 802,719 802,721 801,722 801,724 800,725 800,728 799,729 799,731 798,732 798,736 797,737 797,740 796,741 796,755 795,756 796,757 796,762 797,763 797,766 798,767 798,770 799,771 799,774 800,775 800,776 802,778 802,779 803,779 804,780 809,780 810,781 811,781 812,782 812,783 813,784 812,785 812,787 813,788 813,790 814,791 816,789 818,789 819,790 819,793 820,794 826,794 828,796 829,796 830,797 834,797 835,798 836,798 837,799 837,802 839,802 840,803 842,803 844,805 845,805 846,806 856,806 857,805 858,805 859,804 860,804 861,803 862,803 864,801 865,801 866,800 867,800 881,786 882,786 884,784 884,783 886,781 886,780 889,777 889,776 897,768 898,768 902,764 903,764 914,753 915,753 918,750 918,749 921,746 921,745 923,743 923,742 924,741 924,740 925,739 925,737 926,736 926,728 925,727 925,725 924,724 924,723 923,722 923,720 922,719 922,717 921,716 921,713 920,712 920,709 919,708 919,704 920,703 920,695 919,694 919,690 918,689 918,687 917,686 917,685 915,683 915,682 908,675 907,675 905,673 905,672 902,669 902,668 900,666 900,665 898,663 898,662 889,653 888,653 887,652 886,652 885,651 883,651 882,650 881,650 880,649 877,649 876,648" style="fill:none;stroke:black;stroke-width:1" data-type="Neoplastic" data-type-probability="0.5164038912769940"/>
	<polygon points="548,820 547,821 539,821 538,822 535,822 534,823 531,823 530,824 524,824 523,825 520,825 519,826 518,826 517,827 515,827 514,828 512,828 511,829 510,829 509,830 508,830 503,835 502,835 497,840 497,841 495,843 495,844 494,845 494,846 493,847 493,849 492,850 492,851 491,852 491,855 490,856 490,860 489,861 489,874 488,875 488,878 487,879 487,888 488,889 488,892 489,893 489,895 490,896 490,897 492,899 492,900 493,901 493,902 494,903 494,904 496,906 496,908 497,909 497,912 498,913 498,915 499,916 499,917 503,921 503,922 505,924 506,924 510,928 511,928 513,930 515,930 516,931 518,931 519,932 531,932 532,931 535,931 536,930 537,930 538,929 539,929 541,927 542,927 544,925 545,925 546,924 547,924 548,923 550,923 551,922 553,922 558,917 559,917 560,916 561,916 563,914 564,914 572,906 573,906 580,899 581,899 600,880 601,880 601,879 609,871 609,869 610,868 610,864 611,863 611,849 610,848 610,843 609,842 609,840 608,839 608,838 607,837 607,836 605,834 605,833 600,828 599,828 598,827 596,827 595,826 590,826 589,825 588,825 587,824 575,824 574,823 571,823 570,822 566,822 565,821 561,821 560,820" style="fill:none;stroke:black;stroke-width:1" data-type="Neoplastic" data-type-probability="0.9751994616000000"/>
	<polygon points="451,272 450,273 449,273 448,274 447,274 445,276 445,277 442,280 442,281 441,282 441,283 440,284 440,285 439,286 439,288 438,289 438,292 437,293 437,296 436,297 436,305 437,306 437,312 438,313 438,316 439,317 439,318 441,320 442,320 443,321 451,321 452,320 453,320 454,319 455,319 457,317 458,317 460,315 461,315 463,313 464,313 467,310 468,310 469,309 469,308 470,307 470,306 471,305 471,304 472,303 472,302 473,301 473,299 474,298 474,295 475,294 475,282 474,281 474,280 472,278 471,278 470,277 469,277 468,276 467,276 466,275 464,275 463,274 462,274 461,273 458,273 457,272" style="fill:none;stroke:black;stroke-width:1" data-type="Neoplastic" data-type-probability="0.9065359471199110"/>
	<polygon points="52,271 51,272 48,272 47,273 45,273 44,274 43,274 42,275 41,275 39,277 38,277 37,278 29,278 29,282 30,283 30,285 31,286 31,288 33,290 33,292 34,293 34,295 35,296 35,297 36,298 36,299 38,301 38,302 44,308 45,308 46,309 47,309 48,310 52,310 53,311 61,311 62,312 66,312 67,313 71,313 72,314 83,314 84,313 91,313 92,312 96,312 97,311 100,311 101,310 105,310 106,309 108,309 109,308 111,308 112,307 114,307 115,306 116,306 117,305 119,305 120,304 122,304 123,303 125,303 126,302 129,302 130,301 134,301 135,300 138,300 139,299 140,299 141,298 143,298 144,297 145,297 146,296 148,296 150,294 151,294 154,291 154,290 155,289 155,285 152,282 151,282 149,280 148,280 147,279 146,279 145,278 144,278 143,277 140,277 139,278 130,278 129,277 117,277 116,276 109,276 108,275 102,275 101,274 95,274 94,273 88,273 87,272 83,272 82,271" style="fill:none;stroke:black;stroke-width:1" data-type="Neoplastic" data-type-probability="0.9708641972911447"/>
	<polygon points="720,242 719,243 717,243 716,244 714,244 713,245 711,245 710,246 709,246 707,248 706,248 701,253 701,254 693,262 693,263 690,266 690,267 687,270 687,271 677,281 677,282 674,285 674,286 672,288 672,289 670,291 670,293 668,295 668,296 667,297 667,298 666,299 666,300 665,301 665,302 664,303 664,304 663,305 664,306 664,307 663,308 663,309 664,310 664,321 666,323 666,325 667,326 667,328 669,330 669,331 670,332 670,333 683,333 684,332 696,332 697,331 699,331 700,330 701,330 702,329 704,329 705,328 706,328 707,327 708,327 709,326 710,326 711,325 712,325 713,324 714,324 715,323 716,323 718,321 719,321 720,320 721,320 722,319 723,319 725,317 726,317 738,305 738,304 740,302 740,301 741,300 741,299 742,298 742,297 743,296 743,295 745,293 745,292 746,291 746,290 749,287 749,286 750,285 750,284 751,283 751,282 752,281 752,279 753,278 753,271 752,270 752,266 751,265 751,262 750,261 750,260 749,259 749,258 748,257 748,256 747,255 747,254 746,253 746,252 745,251 745,250 743,248 742,248 741,247 740,247 739,246 738,246 737,245 736,245 734,243 732,243 731,242" style="fill:none;stroke:black;stroke-width:1" data-type="Neoplastic" data-type-probability="0.8109137054367451"/>
	<polygon points="944,234 943,235 939,235 938,236 937,236 935,238 934,238 933,239 932,239 931,240 930,240 929,241 928,241 926,243 925,243 924,244 923,244 922,245 920,245 919,246 914,246 913,247 909,247 908,248 903,248 902,249 900,249 899,248 898,248 889,257 888,257 884,261 883,261 880,264 879,264 877,266 876,266 872,270 871,270 869,272 869,273 868,274 868,275 867,276 867,286 868,287 868,290 869,291 869,292 870,293 870,294 877,301 877,302 881,306 882,306 885,309 885,310 895,320 896,320 897,321 900,321 901,322 906,322 907,323 913,323 914,322 919,322 920,321 923,321 924,320 926,320 927,319 928,319 929,318 930,318 932,316 933,316 935,314 936,314 939,311 940,311 943,308 944,308 948,304 948,303 949,302 949,301 950,300 950,298 951,297 951,296 952,295 952,293 953,292 953,291 955,289 955,288 956,287 956,286 959,283 960,283 961,282 961,281 962,280 962,278 963,277 963,275 964,274 964,273 965,272 965,270 966,269 966,268 967,267 967,265 968,264 968,260 969,259 969,254 970,253 970,252 971,251 971,250 973,248 973,247 974,246 974,245 978,241 969,241 968,240 965,240 964,239 961,239 960,238 958,238 957,237 954,237 953,236 951,236 950,235 948,235 947,234" style="fill:none;stroke:black;stroke-width:1" data-type="Epithelial" data-type-probability="0.6270218838206435"/>
	<polygon points="981,449 980,450 979,450 977,452 976,452 975,453 974,453 972,455 971,455 969,457 968,457 966,459 965,459 964,460 963,460 962,461 961,461 960,462 959,462 958,463 957,463 955,465 954,465 952,467 951,467 949,469 948,469 945,472 944,472 942,474 941,474 939,476 938,476 937,477 936,477 933,480 933,481 927,487 927,488 925,490 925,491 924,492 924,493 923,494 923,495 922,496 922,497 921,498 921,499 920,500 920,501 919,502 928,502 929,503 931,503 932,502 949,502 950,503 959,503 960,504 960,510 963,510 964,511 973,511 974,512 977,512 978,513 980,513 981,514 981,518 987,518 988,519 990,519 991,520 993,520 994,521 996,521 998,523 998,530 999,531 999,537 1001,537 1001,533 1003,531 1003,530 1004,529 1004,528 1009,523 1010,523 1010,522 1014,518 1015,518 1017,520 1017,521 1019,521 1021,523 1022,522 1023,523 1023,469 1021,469 1021,470 1019,472 1018,472 1017,471 1017,470 1015,468 1015,467 1013,465 1013,464 1012,464 1011,463 1011,462 1010,461 1010,460 1009,459 1009,458 1007,456 1007,455 1006,454 1005,454 1004,453 1003,453 1002,452 1000,452 999,451 991,451 990,450 988,450 987,449" style="fill:none;stroke:black;stroke-width:1" data-type="Neoplastic" data-type-probability="0.5649033768173134"/>
	<polygon points="198,817 197,818 194,818 193,819 189,819 188,820 181,820 180,821 174,821 173,822 170,822 169,823 168,823 167,824 166,824 164,826 163,826 156,833 155,833 153,835 152,835 150,837 149,837 146,840 145,840 141,844 141,845 138,848 138,849 133,854 133,855 132,856 132,857 130,859 130,860 129,861 129,862 128,863 128,864 127,865 127,866 126,867 126,868 124,870 124,872 123,873 123,874 122,875 122,876 121,877 121,878 120,879 120,880 119,881 119,882 118,883 118,884 117,885 117,888 116,889 116,895 115,896 115,898 114,899 114,901 117,901 118,902 122,902 123,903 158,903 159,904 169,904 170,905 171,905 172,906 172,909 180,909 181,908 183,908 185,906 186,906 187,905 190,905 191,904 200,904 201,905 201,906 202,907 202,910 218,910 221,913 221,916 222,916 223,915 223,913 224,912 224,910 225,909 225,907 226,906 226,905 227,904 227,902 228,901 228,900 229,899 229,898 232,895 232,894 233,893 233,892 234,891 234,889 235,888 235,884 236,883 236,880 237,879 237,876 239,874 239,873 240,872 240,870 241,869 241,864 240,863 240,859 239,858 239,856 238,855 238,852 237,851 237,847 236,846 236,843 235,842 235,840 234,839 234,838 233,837 233,836 232,835 232,834 231,833 231,832 230,831 230,830 229,829 229,828 225,824 224,824 223,823 222,823 221,822 220,822 219,821 211,821 210,820 206,820 205,819 203,819 202,818 199,818" style="fill:none;stroke:black;stroke-width:1" data-type="Neoplastic" data-type-probability="0.9675486204242935"/>
	<polygon points="1020,659 1019,660 1017,660 1016,661 1014,661 1013,662 1010,662 1009,663 1007,663 1006,664 1005,664 1003,666 1002,666 1001,667 1000,667 998,669 997,669 990,676 990,677 988,679 988,680 987,681 987,682 985,684 985,685 977,693 977,694 976,695 976,696 975,697 975,698 974,699 974,702 973,703 973,710 974,711 974,727 975,728 975,730 976,731 976,732 978,734 978,736 981,739 981,740 984,743 984,744 985,745 985,746 986,747 986,748 987,749 987,750 988,751 988,754 989,755 989,759 990,760 990,761 991,762 991,763 994,766 995,766 996,767 996,768 995,769 996,770 996,771 997,771 999,773 1000,773 1002,775 1004,775 1005,776 1012,776 1013,777 1014,777 1016,775 1017,775 1019,773 1021,773 1022,772 1023,772 1023,659" style="fill:none;stroke:black;stroke-width:1" data-type="Neoplastic" data-type-probability="0.7954395964052972"/>
	<polygon points="726,23 725,24 712,24 711,25 707,25 706,26 701,26 700,27 696,27 695,28 694,28 692,30 690,30 690,31 686,35 686,36 685,37 685,38 684,39 684,41 683,42 683,44 682,45 682,47 680,49 680,52 679,53 679,55 677,57 677,58 676,59 676,64 675,65 675,66 676,67 676,82 677,83 677,87 678,88 678,89 679,89 680,90 680,91 682,93 682,95 683,96 683,97 684,98 684,99 685,100 685,101 686,102 686,103 687,103 688,104 689,104 690,105 691,105 692,106 695,106 696,107 697,107 698,108 701,108 702,109 707,109 708,110 722,110 723,109 725,109 726,108 727,108 729,106 730,106 734,102 735,102 738,99 739,99 741,97 742,97 749,90 749,89 754,84 754,83 756,81 756,80 758,78 758,77 759,76 759,75 760,74 760,72 761,71 761,69 762,68 762,64 763,63 763,61 764,60 764,57 765,56 765,55 768,52 768,51 769,50 764,50 763,49 761,49 760,48 759,48 756,45 755,45 752,42 752,41 751,40 751,39 749,37 749,35 748,34 748,31 747,30 747,28 746,27 746,26 745,27 743,27 739,23 736,23 735,24 727,24" style="fill:none;stroke:black;stroke-width:1" data-type="Epithelial" data-type-probability="0.7545648954179034"/>
	<polygon points="945,53 944,54 942,54 941,55 942,56 941,57 941,69 940,70 940,74 941,75 941,77 952,77 953,76 954,76 956,74 957,74 958,73 960,73 961,72 981,72 982,71 986,71 987,70 988,70 988,69 987,68 987,66 985,64 985,63 981,63 980,64 979,64 978,65 977,65 976,64 976,63 975,62 974,62 973,61 962,61 961,60 961,59 960,58 959,58 957,56 956,56 954,54 951,54 950,55 947,55" style="fill:none;stroke:black;stroke-width:1" data-type="UNK" data-type-probability="0.9999999986225896"/>
	<polygon points="987,71 986,72 982,72 981,73 961,73 960,74 958,74 957,75 956,75 954,77 953,77 952,78 942,78 942,80 940,82 940,84 938,86 938,88 937,89 937,93 936,94 936,96 935,97 934,97 934,99 931,102 931,103 930,104 930,105 929,106 928,106 928,107 924,111 924,112 923,113 922,113 922,115 921,116 921,117 919,119 919,120 918,121 918,125 917,126 917,127 915,129 915,132 912,135 912,137 911,138 911,140 912,141 912,142 911,143 911,148 910,149 910,158 912,160 913,160 914,161 919,161 920,162 923,162 924,161 929,161 930,160 931,160 932,159 933,159 934,158 935,158 937,156 938,156 953,141 954,141 962,133 963,133 964,132 964,131 967,128 967,127 969,125 969,124 971,122 971,121 977,115 977,114 980,111 980,110 981,109 981,108 983,106 983,100 984,99 984,98 985,97 985,95 987,93 987,92 988,91 988,89 987,88 988,87 988,78 989,77 989,75 990,74 990,73 989,72 989,71" style="fill:none;stroke:black;stroke-width:1" data-type="Epithelial" data-type-probability="0.5758236432713605"/>
	<polygon points="812,305 811,306 807,306 806,307 804,307 803,308 800,308 799,309 797,309 796,310 794,310 793,311 791,311 784,318 784,319 783,320 783,321 782,322 782,323 781,324 781,325 780,326 780,327 778,329 778,330 776,332 776,333 774,335 774,337 773,338 773,339 772,340 772,341 771,342 771,343 769,345 769,346 767,348 767,349 766,350 766,351 765,352 765,354 764,355 764,357 763,358 763,359 761,361 761,362 759,364 759,366 758,367 758,378 757,379 757,394 758,395 758,399 760,401 760,402 764,406 765,406 767,408 768,408 769,409 770,409 772,411 773,411 776,414 777,414 778,415 779,415 780,416 781,416 782,417 783,417 784,418 787,418 788,419 794,419 795,420 806,420 807,419 811,419 812,418 815,418 816,417 817,417 818,416 820,416 821,415 822,415 823,414 824,414 825,413 826,413 827,412 828,412 830,410 831,410 834,407 835,407 840,402 840,401 844,397 845,397 852,390 852,389 854,387 854,386 857,383 857,382 859,380 859,379 861,377 861,376 862,375 862,374 863,373 863,372 864,371 864,369 865,368 865,356 864,355 864,353 863,352 863,348 862,347 862,342 861,341 861,339 860,338 860,337 859,336 859,335 855,331 854,331 853,330 852,330 850,328 849,328 848,327 847,327 846,326 845,326 843,324 842,324 840,322 839,322 835,318 834,318 825,309 824,309 822,307 821,307 820,306 819,306 818,305" style="fill:none;stroke:black;stroke-width:1" data-type="Neoplastic" data-type-probability="0.7774752204795256"/>
	<polygon points="860,416 859,417 856,417 855,418 853,418 852,419 851,419 850,420 849,420 848,421 847,421 845,423 844,423 843,424 842,424 841,425 840,425 839,426 838,426 835,429 834,429 830,433 829,433 826,436 825,436 821,440 821,441 818,444 818,445 814,449 814,450 811,453 811,454 809,456 809,457 808,458 808,459 807,460 807,462 806,463 806,479 807,480 807,483 809,485 809,486 811,488 813,488 815,490 817,490 818,491 819,491 820,492 821,492 822,493 824,493 825,494 830,494 831,493 832,493 833,492 834,492 835,491 836,491 843,484 843,483 845,481 845,480 847,478 847,477 848,476 848,475 850,473 850,472 852,470 852,469 853,468 853,467 854,466 854,465 856,463 856,462 858,460 858,459 861,456 861,455 864,452 864,451 869,446 869,445 870,444 870,443 871,442 871,441 872,440 872,438 873,437 873,430 874,429 874,426 875,425 875,424 874,423 874,421 873,420 873,419 872,419 870,417 867,417 866,416" style="fill:none;stroke:black;stroke-width:1" data-type="Epithelial" data-type-probability="0.8604294475888253"/>
	<polygon points="752,482 751,483 750,483 749,484 747,484 746,485 745,485 740,490 740,491 738,493 738,494 737,495 737,496 736,497 736,498 735,499 735,500 734,501 734,502 733,503 733,504 730,507 730,508 729,509 729,510 727,512 727,513 726,514 726,516 725,517 725,519 724,520 724,521 723,522 723,524 722,525 722,528 721,529 721,533 720,534 720,535 721,536 721,538 720,539 720,541 719,542 719,544 718,545 718,548 717,549 717,551 716,552 716,553 715,554 715,556 714,557 715,557 716,558 733,558 734,557 740,557 741,556 742,556 744,554 748,554 749,553 758,553 759,552 771,552 772,553 773,553 774,552 775,552 776,551 776,550 777,549 777,544 778,543 779,543 780,542 781,542 782,541 782,527 783,526 783,520 784,519 784,515 785,514 785,504 784,503 785,502 785,501 784,500 784,499 783,498 783,496 779,492 778,492 777,491 776,491 775,490 775,489 774,488 773,488 770,485 769,485 768,484 767,484 766,483 764,483 763,482" style="fill:none;stroke:black;stroke-width:1" data-type="Neoplastic" data-type-probability="0.3746542619123324"/>
	<polygon points="514,656 513,657 510,657 509,658 507,658 506,659 502,659 501,660 500,660 499,661 498,661 497,662 496,662 494,664 493,664 490,667 490,680 491,681 491,683 492,684 492,686 493,687 493,690 494,691 494,694 495,695 496,695 497,696 498,696 500,698 501,698 503,700 504,700 505,701 506,701 508,703 509,703 515,709 516,709 517,710 517,711 527,711 528,710 534,710 535,709 545,709 548,712 549,712 550,713 551,713 552,714 553,714 554,713 555,713 559,709 560,709 562,707 562,704 563,703 563,700 565,698 565,697 564,696 564,693 563,692 563,689 564,688 564,684 565,683 565,674 566,673 566,671 565,670 565,669 566,668 565,667 566,666 566,664 564,664 563,663 562,663 557,658 554,658 553,657 551,657 550,658 546,658 545,659 539,659 538,658 535,658 534,657 524,657 523,656" style="fill:none;stroke:black;stroke-width:1" data-type="Epithelial" data-type-probability="0.8777136573570449"/>
	<polygon points="0,0 0,11 2,13 2,15 5,18 5,19 9,23 10,23 11,24 13,24 14,25 39,25 40,24 42,24 43,23 46,23 57,12 57,11 59,9 59,8 60,7 60,0" style="fill:none;stroke:black;stroke-width:1" data-type="Neoplastic" data-type-probability="0.7373068427245718"/>
	<polygon points="825,104 824,105 813,105 812,106 809,106 808,107 806,107 805,108 804,108 802,110 801,110 797,114 796,114 795,115 794,115 791,118 790,118 786,122 785,122 781,126 781,127 780,128 780,129 779,130 779,134 778,135 778,137 777,138 777,140 776,141 776,143 775,144 775,145 776,146 776,149 777,150 777,152 778,153 778,160 779,161 779,164 780,165 780,167 781,168 781,174 782,175 782,180 781,181 781,184 780,185 780,188 779,189 779,193 780,194 780,198 779,199 779,207 778,208 778,209 779,210 779,212 778,213 778,221 779,222 779,225 780,226 780,227 781,228 781,229 784,232 785,232 786,233 787,233 788,234 791,234 792,235 797,235 798,234 807,234 808,233 810,233 811,232 812,232 813,231 815,231 816,230 817,230 818,229 821,229 822,228 823,228 824,227 825,227 826,226 827,226 828,225 829,225 830,224 831,224 832,223 833,223 834,222 836,222 837,221 838,221 839,220 841,220 842,219 843,219 844,218 846,218 847,217 849,217 850,216 852,216 853,215 855,215 856,214 857,214 858,213 859,213 861,211 862,211 864,209 865,209 872,202 872,201 874,199 874,198 876,196 876,195 877,194 877,193 880,190 880,189 881,188 881,187 882,186 882,185 883,184 883,183 884,182 884,180 885,179 885,178 886,177 886,175 887,174 887,172 888,171 888,168 889,167 889,158 890,157 890,156 889,155 889,149 888,148 888,145 887,144 887,142 886,141 886,138 885,137 885,135 884,134 884,132 881,129 881,128 879,126 878,126 876,124 874,124 873,123 870,123 869,122 865,122 864,121 861,121 860,120 859,120 857,118 855,118 852,115 851,115 846,110 846,109 845,108 844,108 843,107 842,107 841,106 839,106 838,105 834,105 833,104" style="fill:none;stroke:black;stroke-width:1" data-type="Neoplastic" data-type-probability="0.4962282146452590"/>
	<polygon points="755,813 754,814 742,814 741,815 727,815 726,816 725,816 724,817 723,817 721,819 720,819 719,820 717,820 716,821 715,821 713,823 712,823 711,824 710,824 704,830 703,830 700,833 700,834 699,835 699,837 698,838 698,843 696,845 696,849 695,850 695,851 692,854 692,867 693,868 693,870 694,871 694,872 695,873 695,874 696,875 696,877 698,879 698,880 699,881 699,882 705,888 706,888 710,892 710,893 712,895 712,896 716,900 717,900 718,901 719,901 720,902 721,902 722,903 724,903 725,904 727,904 728,905 730,905 731,906 736,906 737,907 761,907 762,908 764,908 765,907 771,907 772,906 773,906 774,905 775,905 775,904 777,902 777,901 779,899 780,899 781,898 781,897 782,896 783,896 784,895 784,894 786,892 789,892 791,890 792,890 793,889 793,887 794,886 794,883 795,882 795,879 796,878 796,877 800,873 801,873 803,871 803,869 805,867 805,866 807,864 807,863 809,861 809,860 810,859 810,858 811,857 811,855 812,854 812,851 813,850 813,842 814,841 813,840 813,838 812,837 812,834 813,833 812,832 812,830 811,829 811,828 810,827 810,824 809,823 809,821 808,820 807,820 806,819 805,819 804,818 803,818 801,816 797,816 796,815 795,815 794,814 778,814 777,813 776,813 775,814 766,814 765,813" style="fill:none;stroke:black;stroke-width:1" data-type="Neoplastic" data-type-probability="0.6964787210308405"/>
	<polygon points="629,894 628,895 627,895 626,896 625,896 622,899 621,899 619,901 618,901 617,902 616,902 615,903 614,903 609,908 609,909 608,910 608,913 607,914 607,921 606,922 606,932 605,933 605,942 606,943 606,945 607,946 607,947 608,948 608,949 609,950 609,951 610,952 610,953 611,954 611,955 612,956 612,958 613,959 613,960 614,961 614,963 615,964 615,965 620,970 623,970 624,971 636,971 637,970 639,970 641,968 642,968 650,960 650,959 652,957 652,956 654,954 654,953 655,952 655,951 656,950 656,949 657,948 657,946 658,945 658,943 659,942 659,940 660,939 660,936 661,935 661,924 660,923 660,913 659,912 659,910 652,903 651,903 649,901 648,901 645,898 644,898 642,896 641,896 640,895 639,895 638,894" style="fill:none;stroke:black;stroke-width:1" data-type="Neoplastic" data-type-probability="0.9579250717700505"/>
	<polygon points="916,979 915,980 913,980 912,981 911,981 910,982 909,982 895,996 895,997 894,998 894,999 893,1000 893,1002 892,1003 892,1004 891,1005 891,1006 890,1007 890,1008 889,1009 889,1010 888,1011 888,1013 887,1014 887,1015 886,1016 886,1018 885,1019 885,1023 950,1023 951,1022 954,1022 954,1021 956,1019 956,1018 957,1017 957,1015 954,1012 954,1011 953,1010 953,1009 949,1005 947,1005 945,1003 944,1003 943,1002 942,1002 941,1001 941,1000 938,997 938,994 937,993 937,992 936,992 930,986 930,985 929,984 929,983 928,982 927,982 926,981 925,981 924,980 922,980 921,979 920,979 919,980 918,980 917,979" style="fill:none;stroke:black;stroke-width:1" data-type="Neoplastic" data-type-probability="0.4329379560068714"/>
	<polygon points="688,376 687,377 684,377 683,378 681,378 680,379 679,379 678,380 677,380 676,381 675,381 673,383 671,383 670,384 669,384 668,385 666,385 665,386 663,386 662,387 661,387 660,388 658,388 657,389 656,389 655,390 653,390 652,391 651,391 650,392 649,392 631,410 631,411 628,414 628,415 624,419 624,420 613,431 612,431 610,433 609,433 607,435 606,435 604,437 603,437 600,440 599,440 596,443 596,444 595,445 595,449 596,450 597,450 600,453 601,453 602,454 603,454 604,455 605,455 606,456 607,456 608,457 610,457 611,458 617,458 618,457 621,457 622,456 623,456 624,455 625,455 626,454 627,454 628,453 629,453 630,452 631,452 632,451 639,451 640,452 642,452 644,454 644,455 646,457 648,457 649,458 650,457 661,457 662,456 664,456 665,455 667,455 668,454 670,454 671,453 672,453 673,452 674,452 675,451 676,451 677,450 678,450 679,449 680,449 681,448 682,448 683,447 684,447 685,446 686,446 688,444 689,444 690,443 691,443 692,442 693,442 696,439 697,439 699,437 700,437 701,436 702,436 703,435 704,435 704,434 708,430 708,429 709,428 709,427 710,426 710,425 711,424 711,423 712,422 712,421 714,419 714,418 716,416 716,415 718,413 718,412 719,411 719,410 720,409 720,406 721,405 721,402 722,401 722,391 721,390 721,388 720,387 720,386 715,381 714,381 713,380 712,380 711,379 710,379 709,378 707,378 706,377 703,377 702,376" style="fill:none;stroke:black;stroke-width:1" data-type="Neoplastic" data-type-probability="0.7909912716971647"/>
	<polygon points="716,432 715,433 713,433 712,434 711,434 710,435 709,435 702,442 702,443 697,448 696,448 695,449 694,449 693,450 692,450 691,451 690,451 689,452 688,452 687,453 685,453 684,454 683,454 682,455 681,455 680,456 679,456 678,457 677,457 676,458 675,458 674,459 673,459 672,460 670,460 669,461 668,461 666,463 665,463 664,464 662,464 661,465 660,465 659,466 658,466 656,468 655,468 654,469 653,469 652,470 651,470 649,472 648,472 647,473 646,473 645,474 644,474 639,479 639,480 637,482 637,483 636,484 636,485 634,487 634,488 632,490 632,491 630,493 630,494 629,495 629,496 628,497 628,501 629,502 629,504 630,505 630,506 632,508 632,509 634,511 635,511 636,512 637,512 638,513 639,513 640,514 641,514 642,515 659,515 660,514 663,514 664,513 666,513 667,512 669,512 670,511 673,511 674,510 676,510 677,509 679,509 680,508 682,508 683,507 685,507 686,506 687,506 688,505 689,505 691,503 692,503 693,502 694,502 697,499 698,499 699,498 700,498 702,496 703,496 704,495 705,495 707,493 708,493 710,491 711,491 715,487 716,487 719,484 720,484 724,480 725,480 729,476 729,475 732,472 732,471 735,468 735,467 738,464 738,463 741,460 741,459 742,458 742,457 743,456 743,454 744,453 744,451 745,450 745,444 744,443 744,442 740,438 739,438 738,437 737,437 736,436 735,436 734,435 733,435 732,434 730,434 729,433 726,433 725,432" style="fill:none;stroke:black;stroke-width:1" data-type="Neoplastic" data-type-probability="0.7301677028961432"/>
	<polygon points="774,628 773,629 759,629 758,630 757,630 754,633 754,635 753,636 753,639 754,640 754,642 757,645 757,646 762,651 764,651 765,652 766,652 767,653 768,653 769,654 770,654 771,655 772,655 773,656 776,656 777,657 778,656 781,656 782,655 788,655 789,656 790,655 791,655 795,651 795,650 796,649 796,647 797,646 797,640 796,639 796,638 795,637 795,636 791,632 790,632 789,631 787,631 786,630 784,630 783,629 777,629 776,628" style="fill:none;stroke:black;stroke-width:1" data-type="Epithelial" data-type-probability="0.9715127691831899"/>
	<polygon points="747,139 746,140 742,140 741,141 739,141 738,142 736,142 735,143 734,143 733,144 732,144 731,145 730,145 728,147 727,147 723,151 722,151 719,154 718,154 717,155 716,155 715,156 714,156 712,158 711,158 710,159 709,159 707,161 706,161 705,162 704,162 703,163 702,163 697,168 697,169 695,171 695,172 693,174 693,175 691,177 691,178 688,181 688,182 687,183 687,184 684,187 684,188 678,194 678,195 676,197 676,198 674,200 674,201 673,202 673,203 672,204 672,205 671,206 671,207 670,208 670,209 669,210 669,211 668,212 668,213 667,214 667,216 666,217 666,230 667,231 667,232 668,233 668,234 669,235 669,236 670,237 670,239 671,240 671,241 672,242 672,243 673,243 675,245 676,245 677,246 679,246 680,247 689,247 690,246 691,246 692,245 693,245 694,244 695,244 696,243 697,243 704,236 705,236 707,234 707,232 708,231 708,230 707,229 707,222 709,220 709,219 711,217 711,216 714,213 715,213 718,210 719,210 726,203 727,203 728,202 729,202 730,201 731,201 732,200 733,200 734,199 735,199 736,198 737,198 738,197 739,197 741,195 741,194 744,191 745,191 756,180 756,179 759,176 759,175 761,173 761,172 762,171 762,170 764,168 764,167 766,165 766,164 768,162 768,160 769,159 769,152 768,151 768,148 767,147 767,145 765,143 765,142 764,141 763,141 762,140 761,140 760,139" style="fill:none;stroke:black;stroke-width:1" data-type="Neoplastic" data-type-probability="0.5204636000506223"/>
	<polygon points="466,344 465,345 464,345 461,348 461,349 459,351 459,352 458,353 458,354 457,355 457,357 456,358 456,359 455,360 455,361 454,362 454,363 446,371 446,372 445,373 445,377 444,378 444,381 443,382 443,383 441,385 441,386 440,387 440,388 439,389 439,390 438,391 438,404 439,405 439,408 440,409 440,411 442,413 442,414 444,416 444,417 447,420 448,420 449,421 450,421 451,422 453,422 454,421 456,421 457,420 458,420 459,419 460,419 461,418 462,418 465,415 466,415 467,414 467,413 469,411 469,410 470,409 470,406 471,405 471,402 472,401 472,399 473,398 473,396 474,395 474,393 475,392 475,389 476,388 476,385 477,384 477,381 478,380 478,378 479,377 479,375 480,374 480,372 481,371 481,370 482,369 482,366 483,365 483,360 482,359 482,357 481,356 481,354 480,353 480,352 479,351 479,350 477,348 477,347 476,346 475,346 473,344" style="fill:none;stroke:black;stroke-width:1" data-type="Connective" data-type-probability="0.6125541122889376"/>
	<polygon points="103,411 102,412 99,412 98,413 95,413 94,414 92,414 91,415 89,415 88,416 86,416 85,417 84,417 83,418 82,418 81,419 80,419 72,427 71,427 66,432 65,432 61,436 60,436 57,439 56,439 51,444 51,445 48,448 48,449 47,450 47,453 46,454 46,460 47,461 47,465 48,466 48,468 49,469 49,473 50,474 50,479 51,480 51,482 52,483 52,484 54,486 54,487 57,490 58,490 60,492 61,492 63,494 64,494 66,496 67,496 68,497 69,497 70,498 71,498 72,499 74,499 75,500 77,500 78,501 83,501 84,502 93,502 94,501 96,501 97,500 98,500 99,499 100,499 114,485 114,484 115,483 115,482 116,481 116,475 118,473 118,471 117,470 117,469 116,468 116,466 115,465 115,464 114,463 114,462 113,461 113,458 112,457 112,455 111,454 111,452 110,451 110,450 109,449 109,447 108,446 108,445 107,444 107,443 106,442 106,440 105,439 105,436 104,435 104,430 103,429" style="fill:none;stroke:black;stroke-width:1" data-type="Neoplastic" data-type-probability="0.9841444613556166"/>
	<polygon points="110,200 109,201 105,201 104,202 102,202 101,203 98,203 97,204 95,204 94,205 92,205 91,206 88,206 87,207 84,207 83,208 82,208 81,209 80,209 79,210 78,210 74,214 73,214 68,219 68,220 67,221 67,222 66,223 66,232 64,234 63,234 61,236 60,236 59,237 58,237 56,239 54,239 52,241 51,241 49,243 48,243 43,248 42,248 39,251 38,251 34,255 34,256 32,258 32,259 31,260 31,261 30,262 30,265 29,266 29,270 30,271 29,272 29,277 37,277 38,276 39,276 41,274 42,274 43,273 44,273 45,272 47,272 48,271 51,271 52,270 82,270 83,271 87,271 88,272 94,272 95,273 101,273 102,274 108,274 109,275 116,275 117,276 129,276 130,277 139,277 140,276 141,276 140,275 140,271 139,270 139,264 138,263 138,254 137,253 137,251 138,250 138,246 139,245 139,242 140,241 140,235 139,234 139,229 138,228 138,210 137,209 137,207 135,205 134,205 133,204 132,204 131,203 128,203 127,202 124,202 123,201 119,201 118,200" style="fill:none;stroke:black;stroke-width:1" data-type="Neoplastic" data-type-probability="0.9212250244151285"/>
	<polygon points="484,480 483,481 482,481 481,482 479,482 478,483 475,483 474,484 473,484 472,485 470,485 469,486 468,486 467,487 466,487 465,488 464,488 463,489 462,489 457,494 457,495 456,496 456,501 455,502 455,504 454,505 454,511 453,512 453,521 452,522 452,527 453,528 453,530 454,531 454,532 460,538 461,538 463,540 464,540 465,541 466,541 473,548 473,549 476,552 476,553 477,553 485,561 485,562 490,567 491,567 492,568 493,568 494,569 495,569 496,570 498,570 499,571 501,571 502,572 504,572 505,573 512,573 513,574 514,574 515,573 522,573 523,572 528,572 529,571 533,571 534,570 536,570 537,569 539,569 540,568 541,568 542,567 543,567 544,566 545,566 546,565 548,565 549,564 550,564 552,562 553,562 563,552 563,551 565,549 565,547 566,546 566,545 568,543 568,542 569,541 569,540 570,539 570,538 571,537 571,535 572,534 572,523 571,522 571,517 570,516 570,514 569,513 569,512 568,511 568,510 566,508 566,507 564,505 564,504 563,503 563,502 561,500 561,499 559,497 559,496 557,494 557,493 556,493 554,491 551,491 550,490 543,490 542,489 533,489 532,488 529,488 528,487 527,487 526,486 524,486 523,485 522,485 521,484 519,484 518,483 517,483 516,482 514,482 513,481 503,481 502,480" style="fill:none;stroke:black;stroke-width:1" data-type="Neoplastic" data-type-probability="0.9825227088671354"/>
	<polygon points="400,714 399,715 396,715 395,716 393,716 392,717 390,717 389,718 387,718 386,719 385,719 384,720 382,720 381,721 379,721 378,722 377,722 376,723 375,723 374,724 373,724 372,725 371,725 370,726 368,726 367,727 365,727 364,728 363,728 361,730 360,730 357,733 356,733 349,740 348,740 346,742 345,742 340,747 340,748 339,749 339,750 338,751 338,753 337,754 337,757 336,758 336,761 335,762 335,767 334,768 334,776 335,777 335,780 336,781 336,782 340,786 341,786 342,787 343,787 345,789 346,789 347,790 348,790 349,791 350,791 351,792 353,792 354,793 355,793 356,794 357,794 358,795 359,795 360,796 361,796 362,797 364,797 365,798 378,798 379,797 384,797 385,796 389,796 390,795 393,795 394,794 396,794 397,793 400,793 401,792 403,792 404,791 405,791 406,790 407,790 410,787 411,787 412,786 412,785 420,777 420,776 421,775 421,773 422,772 422,771 429,764 430,764 435,759 435,758 437,756 437,754 438,753 438,752 439,751 439,750 441,748 441,747 440,746 440,737 439,736 439,735 423,719 422,719 421,718 421,716 419,716 418,715 416,715 415,714" style="fill:none;stroke:black;stroke-width:1" data-type="Epithelial" data-type-probability="0.8155310004887153"/>
	<polygon points="113,902 113,904 112,905 112,906 111,907 111,908 110,909 110,910 109,911 109,912 108,913 108,914 107,915 107,916 106,917 106,919 105,920 105,921 104,922 104,923 103,924 103,927 102,928 102,930 103,931 103,938 104,939 104,942 105,943 105,946 106,947 105,948 105,950 106,951 106,957 107,958 107,960 108,961 108,965 109,966 109,969 110,970 110,972 112,974 112,975 123,986 124,986 127,989 128,989 130,991 131,991 132,992 133,992 134,993 135,993 136,994 149,994 150,993 152,993 153,992 154,992 156,990 157,990 159,988 160,988 161,987 162,987 163,986 164,986 165,985 166,985 167,984 168,984 170,982 171,982 172,981 173,981 175,979 176,979 178,977 179,977 209,947 210,947 217,940 217,939 218,938 218,936 219,935 219,929 220,928 220,925 221,924 221,919 222,918 222,917 221,917 220,916 220,913 218,911 202,911 201,910 201,907 200,906 200,905 191,905 190,906 187,906 186,907 185,907 183,909 181,909 180,910 172,910 171,909 171,906 170,906 169,905 159,905 158,904 123,904 122,903 118,903 117,902" style="fill:none;stroke:black;stroke-width:1" data-type="Neoplastic" data-type-probability="0.9549851189291932"/>
	<polygon points="780,543 779,544 778,544 778,549 777,550 777,551 775,553 774,553 773,554 772,554 771,553 759,553 758,554 749,554 748,555 744,555 742,557 741,557 740,558 734,558 733,559 716,559 715,558 713,558 713,559 712,560 712,561 710,563 710,564 708,566 708,568 707,569 707,572 706,573 706,587 707,588 707,590 708,591 708,592 709,593 709,594 710,595 710,597 712,599 712,600 716,604 716,605 718,607 718,608 722,612 723,612 726,615 726,616 727,616 728,617 731,617 732,618 736,618 737,619 749,619 750,618 756,618 757,617 760,617 761,616 763,616 764,615 765,615 766,614 767,614 768,613 769,613 778,604 778,603 780,601 780,600 781,599 781,598 782,597 782,596 783,595 783,594 784,593 784,592 785,591 785,590 786,589 786,588 787,587 787,585 788,584 788,567 787,566 787,563 786,562 786,560 785,559 785,556 784,555 784,552 783,551 783,549 782,548 782,545 781,544 781,543" style="fill:none;stroke:black;stroke-width:1" data-type="Epithelial" data-type-probability="0.7911919367241034"/>
	<polygon points="795,660 794,661 792,661 791,662 790,662 789,663 788,663 787,664 786,664 785,665 784,665 777,672 777,673 776,674 776,675 775,676 775,678 774,679 774,682 773,683 773,687 772,688 772,699 773,700 773,701 774,702 774,703 775,703 776,704 777,704 778,705 779,705 780,706 784,706 785,705 786,705 787,704 788,704 790,702 791,702 792,701 793,701 795,699 796,699 798,697 799,697 800,696 801,696 808,689 808,688 810,686 810,685 811,684 811,681 812,680 812,668 811,667 811,665 807,661 806,661 805,660" style="fill:none;stroke:black;stroke-width:1" data-type="Epithelial" data-type-probability="0.8699360334968471"/>
</svg>